<mxfile host="app.diagrams.net" modified="2024-07-01T02:05:03.456Z" agent="Mozilla/5.0 (Windows NT 10.0; Win64; x64) AppleWebKit/537.36 (KHTML, like Gecko) Chrome/126.0.0.0 Safari/537.36" etag="AYD2UYlsk-Y34qft9wej" scale="1" border="0" version="24.6.4" type="device">
  <diagram name="第 1 页" id="3xM15-5e25fEDS3Bbd2N">
    <mxGraphModel dx="794" dy="434" grid="1" gridSize="10" guides="1" tooltips="1" connect="1" arrows="1" fold="1" page="1" pageScale="1" pageWidth="827" pageHeight="1169" math="0" shadow="0">
      <root>
        <mxCell id="0" />
        <mxCell id="1" parent="0" />
        <mxCell id="mZ2IUZgzmPiGWLQ8muih-4" value="&lt;font face=&quot;Arial Unicode MS&quot;&gt;三院病歷資料&lt;/font&gt;" style="rounded=0;whiteSpace=wrap;html=1;" parent="1" vertex="1">
          <mxGeometry x="520" y="280" width="200" height="80" as="geometry" />
        </mxCell>
        <mxCell id="mZ2IUZgzmPiGWLQ8muih-3" value="病人基本資料" style="rounded=0;whiteSpace=wrap;html=1;" parent="1" vertex="1">
          <mxGeometry x="120" y="280" width="200" height="80" as="geometry" />
        </mxCell>
        <mxCell id="mZ2IUZgzmPiGWLQ8muih-34" style="edgeStyle=orthogonalEdgeStyle;rounded=0;orthogonalLoop=1;jettySize=auto;html=1;entryX=0.5;entryY=0;entryDx=0;entryDy=0;" parent="1" edge="1">
          <mxGeometry relative="1" as="geometry">
            <mxPoint x="380" y="1120" as="sourcePoint" />
          </mxGeometry>
        </mxCell>
        <mxCell id="e1Wi5L00jBT5EHBe22-0-46" style="edgeStyle=none;curved=1;rounded=0;orthogonalLoop=1;jettySize=auto;html=1;fontSize=12;startSize=8;endSize=8;" parent="1" source="Zb8fas5pSVloOatjgACy-12" target="e1Wi5L00jBT5EHBe22-0-45" edge="1">
          <mxGeometry relative="1" as="geometry" />
        </mxCell>
        <mxCell id="Zb8fas5pSVloOatjgACy-12" value="&lt;div style=&quot;text-align: center;&quot;&gt;&amp;nbsp; &amp;nbsp; Exclude:&lt;font face=&quot;Helvetica&quot;&gt;&lt;br&gt;&lt;/font&gt;&lt;/div&gt;&lt;div style=&quot;&quot;&gt;&lt;ol&gt;&lt;li&gt;&lt;span style=&quot;background-color: initial; text-indent: -18pt;&quot;&gt;&lt;font face=&quot;oNGR1jl8YvlmxtVdkNMe&quot;&gt;病歷號對應多組性別年齡, N = 76&lt;/font&gt;&lt;/span&gt;&lt;/li&gt;&lt;li&gt;&lt;font face=&quot;oNGR1jl8YvlmxtVdkNMe&quot;&gt;Age &amp;lt; 20 or Age &amp;gt; 100, N = 3&lt;/font&gt;&lt;/li&gt;&lt;li&gt;&lt;font face=&quot;oNGR1jl8YvlmxtVdkNMe&quot;&gt;index date &amp;lt; 最早資料後一年(2009), N = 741&lt;/font&gt;&lt;br&gt;&lt;/li&gt;&lt;/ol&gt;&lt;ol&gt;&lt;/ol&gt;&lt;/div&gt;" style="rounded=0;whiteSpace=wrap;html=1;align=left;" parent="1" vertex="1">
          <mxGeometry x="280" y="560" width="280" height="120" as="geometry" />
        </mxCell>
        <mxCell id="e1Wi5L00jBT5EHBe22-0-44" style="edgeStyle=none;curved=1;rounded=0;orthogonalLoop=1;jettySize=auto;html=1;fontSize=12;startSize=8;endSize=8;" parent="1" source="e1Wi5L00jBT5EHBe22-0-36" target="Zb8fas5pSVloOatjgACy-12" edge="1">
          <mxGeometry relative="1" as="geometry" />
        </mxCell>
        <mxCell id="e1Wi5L00jBT5EHBe22-0-36" value="病人數量:&lt;div&gt;&lt;div&gt;N =&amp;nbsp; 7692&lt;/div&gt;&lt;/div&gt;" style="rounded=0;whiteSpace=wrap;html=1;" parent="1" vertex="1">
          <mxGeometry x="320" y="440" width="200" height="80" as="geometry" />
        </mxCell>
        <mxCell id="e1Wi5L00jBT5EHBe22-0-43" style="edgeStyle=orthogonalEdgeStyle;rounded=0;orthogonalLoop=1;jettySize=auto;html=1;exitX=0.5;exitY=1;exitDx=0;exitDy=0;" parent="1" edge="1">
          <mxGeometry relative="1" as="geometry">
            <mxPoint x="140" y="360" as="sourcePoint" />
            <mxPoint x="420" y="440" as="targetPoint" />
            <Array as="points">
              <mxPoint x="220" y="360" />
              <mxPoint x="220" y="400" />
              <mxPoint x="420" y="400" />
            </Array>
          </mxGeometry>
        </mxCell>
        <mxCell id="e1Wi5L00jBT5EHBe22-0-45" value="病人數量:&lt;div&gt;&lt;div&gt;N =&amp;nbsp; 6872&lt;/div&gt;&lt;/div&gt;" style="rounded=0;whiteSpace=wrap;html=1;" parent="1" vertex="1">
          <mxGeometry x="320" y="720" width="200" height="80" as="geometry" />
        </mxCell>
        <mxCell id="e1Wi5L00jBT5EHBe22-0-66" style="edgeStyle=none;curved=1;rounded=0;orthogonalLoop=1;jettySize=auto;html=1;fontSize=12;startSize=8;endSize=8;" parent="1" edge="1">
          <mxGeometry relative="1" as="geometry">
            <mxPoint x="900" y="1040" as="targetPoint" />
          </mxGeometry>
        </mxCell>
        <mxCell id="p-KfTTYy7W1M97nQ82ZX-1" style="edgeStyle=orthogonalEdgeStyle;rounded=0;orthogonalLoop=1;jettySize=auto;html=1;exitX=0.5;exitY=1;exitDx=0;exitDy=0;" parent="1" edge="1">
          <mxGeometry relative="1" as="geometry">
            <mxPoint x="540" y="360" as="sourcePoint" />
            <mxPoint x="420" y="440" as="targetPoint" />
            <Array as="points">
              <mxPoint x="620" y="360" />
              <mxPoint x="620" y="400" />
              <mxPoint x="420" y="400" />
              <mxPoint x="420" y="440" />
            </Array>
          </mxGeometry>
        </mxCell>
      </root>
    </mxGraphModel>
  </diagram>
</mxfile>
